<svg xmlns="http://www.w3.org/2000/svg" viewBox="0 0 1000 766" role="img" aria-label="LangGraph multi-agent graph of the local platform" class="fig" style="overflow:visible">

<style>
  .fig { font-family: var(--md-text-font-family, Roboto, Helvetica, Arial, sans-serif); color: var(--md-default-fg-color, #222); }
  .fig text { fill: currentColor; }
  .fig .t  { font-size: 14px; }
  .fig .b  { font-size: 14px; font-weight: 700; }
  .fig .s  { font-size: 14px; fill: var(--md-default-fg-color--light, #555); }
  .fig .lane { font-size: 14px; font-weight: 700; letter-spacing: .06em; text-transform: uppercase; }
  .fig .edge { fill: none; stroke: var(--md-default-fg-color--light, #777); stroke-width: 1.5; }
  .fig .lbl { font-size: 14px; font-style: italic; fill: var(--md-default-fg-color--light, #555); }
  .fig .band { fill: rgba(120,144,156,0.08); stroke: rgba(120,144,156,0.45); stroke-width: 1; }
  .fig .band-ma { fill: rgba(63,81,181,0.06); stroke: rgba(63,81,181,0.45); stroke-width: 1; }
  .fig .band-ra { fill: rgba(0,137,123,0.06); stroke: rgba(0,137,123,0.45); stroke-width: 1; }
  .fig .n-sh { fill: var(--md-default-bg-color, #fff); stroke: #78909c; stroke-width: 1.4; }
  .fig .n-ma { fill: var(--md-default-bg-color, #fff); stroke: #3f51b5; stroke-width: 1.4; }
  .fig .n-ra { fill: var(--md-default-bg-color, #fff); stroke: #00897b; stroke-width: 1.4; }
  .fig .n-ma-hi { fill: rgba(63,81,181,0.14); stroke: #3f51b5; stroke-width: 2.6; }
  .fig .n-ra-hi { fill: rgba(0,137,123,0.14); stroke: #00897b; stroke-width: 2.6; }
  .fig .ma { fill: #3f51b5; }
  .fig .ra { fill: #00897b; }
</style>


<defs>
  <marker id="arr" viewBox="0 0 10 10" refX="9" refY="5" markerWidth="7" markerHeight="7" orient="auto-start-reverse">
    <path d="M0,0 L10,5 L0,10 z" fill="var(--md-default-fg-color--light, #777)"/>
  </marker>
</defs>

<rect x="380" y="20" width="100" height="34" rx="17" class="n-sh"/>
<text x="430" y="42" text-anchor="middle" class="b">START</text>
<rect x="310.0" y="92" width="240" height="52" rx="6" class="n-ma"/>
<text x="430.0" y="114.0" text-anchor="middle" class="t">Intent classifier</text>
<text x="430.0" y="132.0" text-anchor="middle" class="s">intention_classifier</text>
<rect x="310.0" y="176" width="240" height="52" rx="6" class="n-ma"/>
<text x="430.0" y="198.0" text-anchor="middle" class="t">Memory retrieval</text>
<text x="430.0" y="216.0" text-anchor="middle" class="s">memory_retrieve_agent</text>
<rect x="310.0" y="260" width="240" height="52" rx="6" class="n-ma"/>
<text x="430.0" y="282.0" text-anchor="middle" class="t">Affective appraisal</text>
<text x="430.0" y="300.0" text-anchor="middle" class="s">affective_appraisal</text>
<rect x="310.0" y="344" width="240" height="52" rx="6" class="n-ma"/>
<text x="430.0" y="366.0" text-anchor="middle" class="t">Orchestrator</text>
<text x="430.0" y="384.0" text-anchor="middle" class="s">orchestrator</text>
<rect x="179.0" y="436" width="150" height="52" rx="6" class="n-ma"/>
<text x="254.0" y="458.0" text-anchor="middle" class="t">Search</text>
<text x="254.0" y="476.0" text-anchor="middle" class="s">search_agent</text>
<rect x="345.0" y="436" width="150" height="52" rx="6" class="n-ma"/>
<text x="420.0" y="458.0" text-anchor="middle" class="t">Vision</text>
<text x="420.0" y="476.0" text-anchor="middle" class="s">vision_agent</text>
<rect x="511.0" y="436" width="170" height="52" rx="6" class="n-ma"/>
<text x="596.0" y="458.0" text-anchor="middle" class="t">Knowledge RAG</text>
<text x="596.0" y="476.0" text-anchor="middle" class="s">knowledge_rag_agent</text>
<rect x="310.0" y="530" width="240" height="52" rx="6" class="n-ma"/>
<text x="430.0" y="552.0" text-anchor="middle" class="t">Response agent</text>
<text x="430.0" y="570.0" text-anchor="middle" class="s">response_agent</text>
<rect x="310.0" y="614" width="240" height="52" rx="6" class="n-ma"/>
<text x="430.0" y="636.0" text-anchor="middle" class="t">Affective update</text>
<text x="430.0" y="654.0" text-anchor="middle" class="s">affective_update</text>
<rect x="380" y="706" width="100" height="34" rx="17" class="n-sh"/>
<text x="430" y="728" text-anchor="middle" class="b">END</text>
<rect x="730" y="344" width="230" height="52" rx="6" class="n-ma"/>
<text x="845.0" y="366.0" text-anchor="middle" class="t">Memory update</text>
<text x="845.0" y="384.0" text-anchor="middle" class="s">memory_update_agent</text>
<path d="M430,54 L430,92" class="edge" marker-end="url(#arr)"/>
<path d="M430,144 L430,176" class="edge" marker-end="url(#arr)"/>
<text x="438" y="166" text-anchor="start" class="lbl">otherwise</text>
<path d="M430,228 L430,260" class="edge" marker-end="url(#arr)"/>
<path d="M430,312 L430,344" class="edge" marker-end="url(#arr)"/>
<path d="M430,396 L254.0,436" class="edge" marker-end="url(#arr)"/>
<path d="M254.0,488 L430,530" class="edge" marker-end="url(#arr)"/>
<path d="M430,396 L420.0,436" class="edge" marker-end="url(#arr)"/>
<path d="M420.0,488 L430,530" class="edge" marker-end="url(#arr)"/>
<path d="M430,396 L596.0,436" class="edge" marker-end="url(#arr)"/>
<path d="M596.0,488 L430,530" class="edge" marker-end="url(#arr)"/>
<text x="302.0" y="422" text-anchor="end" class="lbl">first plan step</text>
<text x="302.0" y="514" text-anchor="end" class="lbl">plan empty</text>
<path d="M430,582 L430,614" class="edge" marker-end="url(#arr)"/>
<path d="M430,666 L430,706" class="edge" marker-end="url(#arr)"/>
<text x="438" y="688" text-anchor="start" class="lbl">otherwise</text>
<path d="M179.0,462.0 L150,462.0 L150,370.0 L310.0,370.0" class="edge" marker-end="url(#arr)"/>
<text x="142" y="430" text-anchor="end" class="lbl">plan steps</text>
<text x="142" y="448" text-anchor="end" class="lbl">remaining</text>
<path d="M550.0,370.0 L640,370.0 L640,548.0 L550.0,548.0" class="edge" marker-end="url(#arr)"/>
<text x="648" y="414.0" text-anchor="start" class="lbl">no plan</text>
<path d="M550.0,118.0 L845.0,118.0 L845.0,344" class="edge" marker-end="url(#arr)"/>
<text x="562.0" y="110.0" text-anchor="start" class="lbl">update_user_info</text>
<path d="M730,358 L690,358 L690,210.0 L550.0,210.0" class="edge" marker-end="url(#arr)"/>
<text x="698" y="206.0" text-anchor="start" class="lbl">otherwise</text>
<path d="M805.0,396 L805.0,564.0 L550.0,564.0" class="edge" marker-end="url(#arr)"/>
<text x="813.0" y="550.0" text-anchor="start" class="lbl">name confirmation</text>
<path d="M885.0,396 L885.0,723 L480,723" class="edge" marker-end="url(#arr)"/>
<text x="893.0" y="676" text-anchor="start" class="lbl">end_conversation,</text>
<text x="893.0" y="694" text-anchor="start" class="lbl">after final save</text>
<path d="M550.0,628 L825.0,628" class="edge" marker-end="url(#arr)"/>
<path d="M825.0,628 L825.0,397" class="edge" marker-end="url(#arr)"/>
<text x="562.0" y="622" text-anchor="start" class="lbl">end_conversation</text>
</svg>